<svg xmlns="http://www.w3.org/2000/svg" viewBox="0 0 1921 1080"><defs><style>.cls-1{fill:#d9d8d7;}.cls-2,.cls-3{fill:#373930;}.cls-2{fill-rule:evenodd;}</style></defs><title>jprel</title><g id="Layer_2" data-name="Layer 2"><g id="Layer_1-2" data-name="Layer 1"><rect class="cls-1" width="1921" height="1080"/><path class="cls-2" d="M876.72,505H820.28a3.79,3.79,0,0,0-3.78,3.78v58.44a3.79,3.79,0,0,0,3.78,3.78h56.44a3.79,3.79,0,0,0,3.78-3.78V508.78A3.79,3.79,0,0,0,876.72,505Zm-52.12,34a2.88,2.88,0,0,1-1.1-2.24V531h5v4h2v5h-3.29A3.9,3.9,0,0,1,824.6,539.05Zm6.9,8h1v12h-1v4h-4V543h4Zm8,16h-5v-8h-1v-4h1v-8h5Zm-2-25.55a3.45,3.45,0,0,1-3.63,3.55H831.5v-5h1V519.8h0V512h5Zm10,9.4h0v7h0v3.85h0V563h-4V543h4ZM850.1,563l-1.6-4.64V555h1v-7h-1v-5h2.19a2.33,2.33,0,0,1,1.08.26,2.94,2.94,0,0,1,.89.72,3.36,3.36,0,0,1,.61,1,3.5,3.5,0,0,1,.23,1.27v8.12a3.59,3.59,0,0,1-.49,1.88,2.86,2.86,0,0,1-1.26,1.16l1.91,5.55Zm5.4-50.51L845.21,541H840.5v-.49L850.74,512h4.76Zm7,34.51h-1v12h1v4h-2.06a1.86,1.86,0,0,1-2.13-.59,3,3,0,0,1-.81-2.27v-13a2.46,2.46,0,0,1,.19-1.24,3.35,3.35,0,0,1,.64-1,2.83,2.83,0,0,1,.94-.69,1.86,1.86,0,0,0,1.17-1.21h2.06Zm0-29.73V528h2v5h-2v8h-5V512h5Zm6,42.87a4.65,4.65,0,0,1-.29,1.25,3.14,3.14,0,0,1-.65,1,3.32,3.32,0,0,1-.94.68,1,1,0,0,1-1.16-.07h-2v-4h1V547h-1v-4h2a1.86,1.86,0,0,0,1.16,1.21,3.17,3.17,0,0,1,.94.69,3.38,3.38,0,0,1,.65,1,4.5,4.5,0,0,1,.29,1.24Zm5-31.84a4.56,4.56,0,0,1-.38,1.84,4.62,4.62,0,0,1-1,1.49,5.15,5.15,0,0,1-1.5,1,4.44,4.44,0,0,1-1.83.38H865.5v-5h3V517h-3v-5h3.26a4.44,4.44,0,0,1,1.83.38,4.86,4.86,0,0,1,1.5,1,4.8,4.8,0,0,1,1,1.48,4.43,4.43,0,0,1,.38,1.82Z"/><polyline class="cls-3" points="889.5 531 893.5 531 893.5 540 896.5 540 896.5 521 894.5 521 894.5 529 889.5 529 889.5 521 886.5 521 886.5 540 889.5 540 889.5 531"/><path class="cls-3" d="M902.61,521.76,898.21,541h2.6l1.09-5h3.71l1.09,5h2.71L905,521H902.5M902,533l1-4.73c.28-1.25.55-2.86.78-4.27h.08c.22,1.38.47,2.94.75,4.27l1,4.73Z"/><rect class="cls-3" x="910.5" y="521" width="3" height="19"/><polyline class="cls-3" points="924.5 521 914.5 521 914.5 524 918.5 524 918.5 541 920.5 541 920.5 524 924.5 524 924.5 521"/><rect class="cls-3" x="925.5" y="521" width="3" height="19"/><path class="cls-3" d="M937.5,540h2.73L936,521h-2.4l-4.34,19h2.12l1.16-6h4.33l1.26,5.77M933,533l1-4.73c.27-1.25.55-2.86.77-4.27h.09c.22,1.38.47,2.94.74,4.27l1,4.73Z"/><path class="cls-3" d="M952.5,521h-3v7c0,3.39.09,5.92.26,9h-.06c-.66-2.12-1.68-4.7-2.49-6.82l-3.6-9.18H941.5v19h3v-6.32c0-3.91-.06-6.24-.23-8.68h.06a54.8,54.8,0,0,0,2.35,6.21l3.73,8.79h2.09V521"/><path class="cls-3" d="M961.5,533h1.36a4,4,0,0,1,2.91,3.14,41.68,41.68,0,0,0,1,4.86h2.06a48.29,48.29,0,0,1-1-5c-.37-2.39-1.06-3.7-2.25-4.11v0a5.59,5.59,0,0,0,1.48-8.33,5.39,5.39,0,0,0-4-1.3c-1,0-3.46.35-3.46.35V541h3V531m-1-8.37a4.78,4.78,0,0,1,1.17-.11c2.34,0,3.26,1.4,3.26,3.63s-1.4,3.85-3.49,3.85h-.94Z"/><polyline class="cls-3" points="978.5 538 973.5 538 973.5 531 978.5 531 978.5 530 973.5 530 973.5 522 978.5 522 978.5 521 970.5 521 970.5 540 978.5 540 978.5 538"/><polyline class="cls-3" points="987.5 538 982.5 538 982.5 521 979.5 521 979.5 540 987.5 540 987.5 538"/><rect class="cls-3" x="989.5" y="521" width="3" height="19"/><polyline class="cls-3" points="1001.5 538 996.5 538 996.5 531 1001.5 531 1001.5 530 996.5 530 996.5 522 1001.5 522 1001.5 521 994.5 521 994.5 540 1002.5 540 1002.5 538"/><polyline class="cls-3" points="1002.5 521 1002.5 541 1005.5 541 1005.5 531 1010.5 531 1010.5 530 1005.5 530 1005.5 522 1010.5 522 1010.5 521 1003.5 521"/><path class="cls-3" d="M891.67,544.06c-3.34,0-5.65,3.46-5.65,9.83s2.14,9.87,5.34,9.87,5.57-2.76,5.57-10c0-6.14-2-9.71-5.26-9.71m-.14,17.76c-2.46,0-3.23-3.94-3.23-7.91s.77-7.9,3.2-7.9,3.14,4.25,3.14,7.85C894.64,557.63,894,561.82,891.53,561.82Z"/><path class="cls-3" d="M904.5,554v-.34a4.43,4.43,0,0,0,2.69-4.32,4.54,4.54,0,0,0-1.17-3.29,5.19,5.19,0,0,0-3.78-1.19,10.78,10.78,0,0,0-2.74.32V563h2v-8h.74c1.89.17,2.72,1.14,3.14,3.8a26.26,26.26,0,0,0,1,4.2h2.23a26,26,0,0,1-1.12-4.85c-.39-2.52-1.14-3.89-2.56-4.32m-2.52.17h-.94v-7.37a4.78,4.78,0,0,1,1.17-.11c2.34,0,3.25,1.4,3.25,3.63S904.53,554,902.44,554Z"/><path class="cls-3" d="M914.5,555h3v6.59c.06.12-.37.23-1.11.23-2.31,0-4.57-1.91-4.57-7.85s2.6-7.88,5-7.88a4.66,4.66,0,0,1,2.2.46l.48-1.88a5.76,5.76,0,0,0-2.71-.55c-3.4,0-7.22,2.54-7.25,10,0,3.54.91,6.2,2.31,7.68a5.83,5.83,0,0,0,4.54,1.86,4,4,0,0,0,2.11-.66v-9h-4v1"/><path class="cls-3" d="M925.82,543.76,921.43,563H924l1.09-5h3.71l1.09,5h2.6l-4.23-19H925.5m-.31,12,1-4.74c.28-1.24.56-2.85.78-4.26H927c.22,1.38.47,2.94.75,4.26l1,4.74Z"/><path class="cls-3" d="M942.25,552.15c0,3.34.09,5.82.26,8.85h.18c-.67-2.12-1.69-4.7-2.5-6.82l-3.6-9.18H934.5v18h1v-6.12a33.16,33.16,0,0,0,.64-9.88h.06a41.31,41.31,0,0,0,2.31,7.29l3.66,8.71h1.33V544h-1v7"/><rect class="cls-3" x="946.5" y="544" width="3" height="19"/><polyline class="cls-3" points="952.5 546 957.5 546 957.5 546.06 950.5 561.79 950.5 563 960.5 563 960.5 562 953.5 562 953.5 561.83 960.5 546.04 960.5 545 952.5 545 952.5 546"/><path class="cls-3" d="M965.92,543.76,961.52,563h2.59l1.09-5h3.72l1.09,5h2.59l-4.23-19H965.5m-.21,12,1-4.74c.27-1.24.55-2.85.77-4.26h.09c.22,1.38.47,2.94.74,4.26l1,4.74Z"/><polyline class="cls-3" points="972.5 546 974.5 546 974.5 563 977.5 563 977.5 546 981.5 546 981.5 545 972.5 545 972.5 546"/><rect class="cls-3" x="982.5" y="544" width="3" height="19"/><path class="cls-3" d="M993.1,544.06c-3.34,0-5.65,3.46-5.65,9.83s2.14,9.87,5.34,9.87,5.57-2.76,5.57-10c0-6.14-2-9.71-5.26-9.71M993,561.82c-2.45,0-3.22-3.94-3.22-7.91s.77-7.9,3.19-7.9,3.14,4.25,3.14,7.85C996.07,557.63,995.42,561.82,993,561.82Z"/><path class="cls-3" d="M1008.5,552.15c0,3.34.09,5.82.26,8.85h.93c-.67-2.12-1.69-4.7-2.5-6.82l-3.6-9.18h-2.09v18h1v-6.12c.12-4.11.06-6.56-.11-9.88h.06a40.49,40.49,0,0,0,2.31,7.29l3.65,8.71h2.09V544h-1v7"/><text></text></g></g></svg>